<svg xmlns="http://www.w3.org/2000/svg" xmlns:xlink="http://www.w3.org/1999/xlink" width="28" height="28"><defs><path id="a" d="M8 0h12a8 8 0 018 8v12a8 8 0 01-8 8H8a8 8 0 01-8-8V8a8 8 0 018-8zm1.724 11.147H6.512a.258.258 0 00-.258.258v10.32c0 .142.116.257.258.257h3.212a.258.258 0 00.258-.258V11.405a.258.258 0 00-.258-.258zM8.12 6.017A2.12 2.12 0 006 8.136a2.12 2.12 0 002.12 2.118 2.12 2.12 0 002.117-2.118A2.12 2.12 0 008.12 6.018zm9.774 4.874c-1.29 0-2.243.554-2.822 1.185v-.67a.258.258 0 00-.258-.259h-3.076a.258.258 0 00-.258.258v10.32c0 .142.116.257.258.257h3.205a.258.258 0 00.258-.258V16.62c0-1.72.467-2.39 1.667-2.39 1.306 0 1.41 1.074 1.41 2.478v5.017c0 .143.115.258.258.258h3.206a.258.258 0 00.258-.258v-5.66c0-2.558-.488-5.173-4.106-5.173z"/></defs><use fill="#858585" fill-rule="evenodd" xlink:href="#a"/></svg>