<svg xmlns="http://www.w3.org/2000/svg" width="28" height="28"><path fill="#858585" fill-rule="evenodd" d="M8 0h12a8 8 0 018 8v12a8 8 0 01-8 8H8a8 8 0 01-8-8V8a8 8 0 018-8zm14 9.547c-.589.26-1.22.437-1.885.516a3.292 3.292 0 001.443-1.812 6.623 6.623 0 01-2.086.796 3.275 3.275 0 00-2.395-1.035 3.28 3.28 0 00-3.197 4.023A9.323 9.323 0 017.115 8.61a3.274 3.274 0 001.016 4.375 3.286 3.286 0 01-1.487-.411v.04a3.282 3.282 0 002.632 3.214 3.33 3.33 0 01-.864.115c-.212 0-.417-.02-.618-.06a3.283 3.283 0 003.065 2.275 6.592 6.592 0 01-4.076 1.4c-.265 0-.526-.015-.783-.044a9.288 9.288 0 005.031 1.475c6.038 0 9.338-4.994 9.338-9.325l-.01-.424A6.549 6.549 0 0022 9.547z"/></svg>